<svg width="73" height="73" viewBox="0 0 73 73" fill="none" xmlns="http://www.w3.org/2000/svg">
<path d="M65.4197 36.3393C65.4197 37.9493 65.2897 39.5293 65.0297 41.0693C64.3197 45.4593 62.6097 49.5193 60.1397 53.0093V53.0193C55.8997 59.0493 49.4097 63.3893 41.8997 64.8193C39.6039 65.2576 37.2638 65.4188 34.9297 65.2993H34.8597C34.3897 65.2693 33.9197 65.2393 33.4497 65.1893C33.4097 65.1893 33.3697 65.1793 33.3297 65.1793C32.9397 65.1393 32.5497 65.0893 32.1597 65.0293C32.0497 65.0093 31.9297 64.9993 31.8197 64.9793C31.5197 64.9293 31.2297 64.8793 30.9297 64.8193C30.4597 64.7293 29.9897 64.6293 29.5197 64.5093C29.3297 64.4693 29.1297 64.4193 28.9397 64.3693C28.6797 64.2993 28.4197 64.2193 28.1597 64.1393C27.9297 64.0693 27.6897 63.9993 27.4497 63.9193C27.2128 63.8501 26.9792 63.77 26.7497 63.6793L26.1797 63.4693C26.0697 63.4393 25.9697 63.3993 25.8597 63.3493C24.9406 62.9826 24.0395 62.5721 23.1597 62.1193C22.9297 61.9993 22.7097 61.8793 22.4797 61.7493C22.2197 61.6093 21.9697 61.4693 21.7197 61.3193C21.4397 61.1493 21.1597 60.9893 20.8797 60.8093C20.7997 60.7593 20.7197 60.6993 20.6397 60.6493C20.2497 60.3993 19.8597 60.1293 19.4897 59.8593C19.1697 59.6393 18.8597 59.3993 18.5597 59.1693C18.5306 59.1488 18.5038 59.1254 18.4797 59.0993C18.2097 58.8893 17.9497 58.6793 17.6997 58.4593C17.5697 58.3593 17.4397 58.2493 17.3197 58.1393L17.0297 57.8793C17.0097 57.8693 16.9997 57.8593 16.9897 57.8493C16.9597 57.8193 16.9297 57.7893 16.8997 57.7693C16.8797 57.7593 16.8697 57.7393 16.8597 57.7293C16.8419 57.7212 16.8277 57.707 16.8197 57.6893C16.6917 57.5811 16.5682 57.4677 16.4497 57.3493C16.3197 57.2293 16.1997 57.1193 16.0897 56.9993C16.0697 56.9793 16.0497 56.9593 16.0397 56.9393C15.9397 56.8393 15.8397 56.7493 15.7397 56.6593C15.5877 56.5073 15.4477 56.3373 15.2997 56.1793L15.2797 56.1593L15.2817 56.1603C14.9477 55.8063 14.6117 55.4553 14.2897 55.0793C14.0497 54.7993 13.8097 54.5093 13.5797 54.2093C10.553 50.3527 8.55704 45.7897 7.77968 40.9493C7.53968 39.4493 7.41968 37.9093 7.41968 36.3393C7.41968 30.1693 9.33968 24.4493 12.6397 19.7493C15.8297 15.1693 20.3197 11.5593 25.5697 9.44926C28.9197 8.07926 32.5797 7.33926 36.4197 7.33926C40.2497 7.33926 43.9097 8.07926 47.2497 9.43926C49.7697 10.4393 52.1097 11.7993 54.2197 13.4593C54.7797 13.8893 55.3297 14.3493 55.8597 14.8393H55.8697C56.3997 15.3193 56.9097 15.8193 57.3997 16.3393C58.1497 17.1093 58.8397 17.9193 59.4897 18.7793C59.6997 19.0593 59.9197 19.3493 60.1197 19.6393V19.6493C60.1197 19.6493 60.1197 19.6393 60.1297 19.6493C60.6297 20.3393 61.0997 21.0693 61.5197 21.8193C61.6697 22.0693 61.8097 22.3193 61.9497 22.5793C62.1197 22.8893 62.2797 23.1893 62.4197 23.4993C62.5297 23.7093 62.6297 23.9193 62.7297 24.1393C62.8897 24.4593 63.0297 24.7793 63.1597 25.0993C63.3197 25.4593 63.4597 25.8193 63.5897 26.1893C63.6997 26.4693 63.7997 26.7493 63.8897 27.0393C63.9697 27.2693 64.0497 27.5093 64.1297 27.7593C64.2297 28.0793 64.3197 28.3993 64.4097 28.7193C64.4697 28.9493 64.5297 29.1693 64.5797 29.3993C64.7597 30.1093 64.9097 30.8193 65.0197 31.5493C65.0597 31.7593 65.0897 31.9693 65.1197 32.1893C65.1697 32.5093 65.2097 32.8393 65.2397 33.1593C65.2597 33.2993 65.2797 33.4393 65.2897 33.5693C65.3197 33.9193 65.3497 34.2693 65.3597 34.6293C65.3797 34.7793 65.3897 34.9193 65.3897 35.0693C65.4097 35.4893 65.4197 35.9093 65.4197 36.3393Z" fill="white"/>
<path d="M65.4198 36.3393C65.4198 37.9493 65.2898 39.5293 65.0298 41.0693C64.3198 45.4593 62.6098 49.5193 60.1398 53.0093V53.0193C55.8998 59.0493 49.4098 63.3893 41.8998 64.8193C39.604 65.2576 37.264 65.4188 34.9298 65.2993H34.8598C34.3898 65.2693 33.9198 65.2393 33.4498 65.1893C33.4098 65.1893 33.3698 65.1793 33.3298 65.1793C32.9398 65.1393 32.5498 65.0893 32.1598 65.0293C32.0498 65.0093 31.9298 64.9993 31.8198 64.9793C31.5198 64.9293 31.2298 64.8793 30.9298 64.8193C30.4598 64.7293 29.9898 64.6293 29.5198 64.5093C29.3298 64.4693 29.1298 64.4193 28.9398 64.3693C28.6798 64.2993 28.4198 64.2193 28.1598 64.1393C27.9298 64.0693 27.6898 63.9993 27.4498 63.9193C27.2129 63.8501 26.9793 63.77 26.7498 63.6793L26.1798 63.4693C26.0698 63.4393 25.9698 63.3993 25.8598 63.3493C25.4698 63.1893 25.0798 63.0293 24.6998 62.8593C24.4398 62.7393 24.1798 62.6193 23.9298 62.4993C23.6698 62.3793 23.4198 62.2493 23.1598 62.1193C22.9298 61.9993 22.7098 61.8793 22.4798 61.7493C22.2198 61.6093 21.9698 61.4693 21.7198 61.3193C21.4398 61.1493 21.1598 60.9893 20.8798 60.8093C20.7998 60.7593 20.7198 60.6993 20.6398 60.6493C20.2498 60.3993 19.8598 60.1293 19.4898 59.8593C19.1698 59.6393 18.8598 59.3993 18.5598 59.1693C18.5307 59.1488 18.5039 59.1254 18.4798 59.0993C18.2098 58.8893 17.9498 58.6793 17.6998 58.4593C17.417 58.2192 17.137 57.9758 16.8598 57.7293C16.842 57.7213 16.8278 57.707 16.8198 57.6893C16.5598 57.4393 16.2898 57.1993 16.0398 56.9393C15.7798 56.6793 15.5298 56.4193 15.2798 56.1593C19.2698 58.4993 23.8798 59.9293 28.7998 60.1093C29.1798 60.1293 29.5598 60.1393 29.9398 60.1393C36.6998 60.1393 42.9298 57.8293 47.8598 53.9393C53.8498 49.2293 57.9398 42.2093 58.7798 34.2193C58.8898 33.2093 58.9398 32.1793 58.9398 31.1393C58.9398 29.0693 58.7198 27.0593 58.3098 25.1193V25.1093C57.2193 19.9676 54.7473 15.2206 51.1598 11.3793C52.2198 12.0093 53.2498 12.7093 54.2198 13.4593C54.7798 13.8993 55.3298 14.3593 55.8598 14.8393C55.8598 14.8393 55.8598 14.8293 55.8698 14.8393C56.3998 15.3293 56.9098 15.8193 57.3998 16.3393C58.3798 17.3693 59.2998 18.4793 60.1198 19.6493C60.6198 20.3493 61.0898 21.0693 61.5198 21.8193C61.6698 22.0693 61.8098 22.3193 61.9498 22.5793C62.1198 22.8893 62.2798 23.1893 62.4198 23.4993C62.5298 23.7093 62.6298 23.9193 62.7298 24.1393C62.8898 24.4593 63.0298 24.7793 63.1598 25.0993C63.3198 25.4593 63.4598 25.8193 63.5898 26.1893C63.6998 26.4693 63.7998 26.7493 63.8898 27.0393C63.9698 27.2693 64.0498 27.5093 64.1298 27.7593C64.2298 28.0793 64.3198 28.3993 64.4098 28.7193C64.4698 28.9493 64.5298 29.1693 64.5798 29.3993C64.7598 30.1093 64.9098 30.8193 65.0198 31.5493C65.0598 31.7593 65.0898 31.9693 65.1198 32.1893C65.1698 32.5093 65.2098 32.8393 65.2398 33.1593C65.2598 33.2993 65.2798 33.4393 65.2898 33.5693C65.3198 33.9193 65.3498 34.2693 65.3598 34.6293C65.3798 34.7793 65.3898 34.9193 65.3898 35.0693C65.4098 35.4893 65.4198 35.9093 65.4198 36.3393Z" fill="#B93457"/>
<path d="M65.4197 36.3393C65.4197 37.9493 65.2897 39.5293 65.0297 41.0693C64.3197 45.4593 62.6097 49.5193 60.1397 53.0093V53.0193C55.8997 59.0493 49.4097 63.3893 41.8997 64.8193C39.6039 65.2576 37.2638 65.4188 34.9297 65.2993H34.8597C34.3897 65.2693 33.9197 65.2393 33.4497 65.1893C33.4097 65.1893 33.3697 65.1793 33.3297 65.1793C32.9397 65.1393 32.5497 65.0893 32.1597 65.0293C32.0497 65.0093 31.9297 64.9993 31.8197 64.9793C31.5197 64.9293 31.2297 64.8793 30.9297 64.8193C30.4597 64.7293 29.9897 64.6293 29.5197 64.5093C29.3297 64.4693 29.1297 64.4193 28.9397 64.3693C28.6797 64.2993 28.4197 64.2193 28.1597 64.1393C27.9297 64.0693 27.6897 63.9993 27.4497 63.9193C27.2128 63.8501 26.9792 63.77 26.7497 63.6793L26.1797 63.4693C26.0697 63.4393 25.9697 63.3993 25.8597 63.3493C24.9406 62.9826 24.0395 62.5721 23.1597 62.1193C22.9297 61.9993 22.7097 61.8793 22.4797 61.7493C22.2197 61.6093 21.9697 61.4693 21.7197 61.3193C21.4397 61.1493 21.1597 60.9893 20.8797 60.8093C20.7997 60.7593 20.7197 60.6993 20.6397 60.6493C20.2497 60.3993 19.8597 60.1293 19.4897 59.8593C19.1697 59.6393 18.8597 59.3993 18.5597 59.1693C18.5306 59.1488 18.5038 59.1254 18.4797 59.0993C18.2097 58.8893 17.9497 58.6793 17.6997 58.4593C17.5697 58.3593 17.4397 58.2493 17.3197 58.1393L17.0297 57.8793C17.0097 57.8693 16.9997 57.8593 16.9897 57.8493C16.9597 57.8193 16.9297 57.7893 16.8997 57.7693C16.8797 57.7593 16.8697 57.7393 16.8597 57.7293C16.8419 57.7212 16.8277 57.707 16.8197 57.6893C16.6917 57.5811 16.5682 57.4677 16.4497 57.3493C16.3197 57.2293 16.1997 57.1193 16.0897 56.9993C16.0697 56.9793 16.0497 56.9593 16.0397 56.9393C15.9397 56.8393 15.8397 56.7493 15.7397 56.6593C15.5877 56.5073 15.4477 56.3373 15.2997 56.1793L15.2797 56.1593L15.2817 56.1603C14.9477 55.8063 14.6117 55.4553 14.2897 55.0793C14.0497 54.7993 13.8097 54.5093 13.5797 54.2093C10.553 50.3527 8.55704 45.7897 7.77968 40.9493C7.53968 39.4493 7.41968 37.9093 7.41968 36.3393C7.41968 30.1693 9.33968 24.4493 12.6397 19.7493C15.8297 15.1693 20.3197 11.5593 25.5697 9.44926C28.9197 8.07926 32.5797 7.33926 36.4197 7.33926C40.2497 7.33926 43.9097 8.07926 47.2497 9.43926C49.7697 10.4393 52.1097 11.7993 54.2197 13.4593C54.7797 13.8893 55.3297 14.3493 55.8597 14.8393H55.8697C56.3997 15.3193 56.9097 15.8193 57.3997 16.3393C58.1497 17.1093 58.8397 17.9193 59.4897 18.7793C59.6997 19.0593 59.9197 19.3493 60.1197 19.6393V19.6493C60.1197 19.6493 60.1197 19.6393 60.1297 19.6493C60.6297 20.3393 61.0997 21.0693 61.5197 21.8193C61.6697 22.0693 61.8097 22.3193 61.9497 22.5793C62.1197 22.8893 62.2797 23.1893 62.4197 23.4993C62.5297 23.7093 62.6297 23.9193 62.7297 24.1393C62.8897 24.4593 63.0297 24.7793 63.1597 25.0993C63.3197 25.4593 63.4597 25.8193 63.5897 26.1893C63.6997 26.4693 63.7997 26.7493 63.8897 27.0393C63.9697 27.2693 64.0497 27.5093 64.1297 27.7593C64.2297 28.0793 64.3197 28.3993 64.4097 28.7193C64.4697 28.9493 64.5297 29.1693 64.5797 29.3993C64.7597 30.1093 64.9097 30.8193 65.0197 31.5493C65.0597 31.7593 65.0897 31.9693 65.1197 32.1893C65.1697 32.5093 65.2097 32.8393 65.2397 33.1593C65.2597 33.2993 65.2797 33.4393 65.2897 33.5693C65.3197 33.9193 65.3497 34.2693 65.3597 34.6293C65.3797 34.7793 65.3897 34.9193 65.3897 35.0693C65.4097 35.4893 65.4197 35.9093 65.4197 36.3393Z" stroke="#FD983A" stroke-width="2" stroke-miterlimit="10" stroke-linecap="round" stroke-linejoin="round"/>
<path d="M34.6567 28.4123L28.5007 32.8843C27.9881 33.2566 27.6066 33.7817 27.4108 34.3842C27.215 34.9867 27.2149 35.6357 27.4107 36.2383L29.7627 43.4743C29.9584 44.0768 30.3399 44.6019 30.8524 44.9742C31.3649 45.3466 31.9822 45.5472 32.6157 45.5473H40.2237C40.8574 45.5474 41.4748 45.3469 41.9875 44.9745C42.5003 44.6021 42.8819 44.0769 43.0777 43.4743L45.4277 36.2383C45.6234 35.6357 45.6234 34.9867 45.4276 34.3842C45.2318 33.7817 44.8502 33.2566 44.3377 32.8843L38.1827 28.4123C37.6702 28.04 37.0531 27.8396 36.4197 27.8396C35.7863 27.8396 35.1692 28.04 34.6567 28.4123ZM46.6997 10.5193L38.2897 14.6393C37.6997 14.9193 37.0597 15.0593 36.4197 15.0493C35.8497 15.0393 35.2797 14.9093 34.7397 14.6593L26.1297 10.5593C25.7097 10.3593 25.4897 9.88926 25.5697 9.44926C28.9197 8.07926 32.5797 7.33926 36.4197 7.33926C40.2497 7.33926 43.9097 8.07926 47.2497 9.43926C47.3297 9.86926 47.1197 10.3193 46.6997 10.5193ZM30.9297 64.8193C30.4597 64.7293 29.9897 64.6293 29.5197 64.5093C29.3297 64.4693 29.1297 64.4193 28.9397 64.3693C28.6797 64.2993 28.4197 64.2193 28.1597 64.1393C27.9297 64.0693 27.6897 63.9993 27.4497 63.9193C27.2128 63.8501 26.9792 63.77 26.7497 63.6793L26.1797 63.4693C26.0697 63.4393 25.9697 63.3993 25.8597 63.3493C25.4697 63.1893 25.0797 63.0293 24.6997 62.8593C24.1777 62.6293 23.6667 62.3793 23.1607 62.1183C22.932 61.9996 22.705 61.8776 22.4797 61.7523C22.223 61.6123 21.9697 61.4679 21.7197 61.3193C21.4368 61.1547 21.1568 60.9853 20.8797 60.8113L20.6377 60.6503C17.5051 58.6243 14.7929 56.0129 12.6497 52.9593C12.8397 52.6193 13.2297 52.4093 13.6597 52.4593L22.9997 53.5993C23.6397 53.6793 24.2397 53.8993 24.7597 54.2493C25.2497 54.5793 25.6697 55.0093 25.9797 55.5193L28.7997 60.1093L30.9897 63.6893C31.2097 64.0493 31.1797 64.4993 30.9297 64.8193ZM15.5797 31.7093C15.4353 32.2965 15.1659 32.8457 14.7897 33.3193L8.88968 40.6193C8.60968 40.9593 8.15968 41.0793 7.77968 40.9493C7.53968 39.4493 7.41968 37.9093 7.41968 36.3393C7.41968 30.1693 9.33968 24.4493 12.6397 19.7493C13.0597 19.7993 13.4297 20.0993 13.5197 20.5393L15.5997 29.8693C15.7397 30.4793 15.7297 31.1093 15.5797 31.7093ZM60.1397 53.0093V53.0193C55.8997 59.0493 49.4097 63.3893 41.8997 64.8193C41.6397 64.4993 41.6097 64.0393 41.8297 63.6693L46.8197 55.5293C47.1411 55.0067 47.5757 54.5628 48.0914 54.2305C48.6072 53.8982 49.191 53.6859 49.7997 53.6093L59.1097 52.4693C59.5497 52.4193 59.9497 52.6493 60.1397 53.0093ZM65.4197 36.3393C65.4197 37.9493 65.2897 39.5293 65.0297 41.0693C64.8469 41.1104 64.6563 41.0995 64.4795 41.0376C64.3027 40.9757 64.1469 40.8654 64.0297 40.7193L58.7797 34.2193L58.0497 33.3193C57.6631 32.8427 57.3901 32.2844 57.2515 31.6866C57.1129 31.0888 57.1123 30.4673 57.2497 29.8693L58.3097 25.1193V25.1093L59.3497 20.4193C59.4297 20.0293 59.7397 19.7293 60.1197 19.6493C60.1197 19.6393 60.1197 19.6393 60.1297 19.6493C60.6297 20.3393 61.0997 21.0693 61.5197 21.8193C61.6697 22.0693 61.8097 22.3193 61.9497 22.5793C62.1197 22.8893 62.2797 23.1893 62.4197 23.4993C62.5297 23.7093 62.6297 23.9193 62.7297 24.1393C62.8897 24.4593 63.0297 24.7793 63.1597 25.0993C63.3197 25.4593 63.4597 25.8193 63.5897 26.1893C63.6997 26.4693 63.7997 26.7493 63.8897 27.0393C63.9697 27.2693 64.0497 27.5093 64.1297 27.7593C64.2297 28.0793 64.3197 28.3993 64.4097 28.7193C64.4697 28.9493 64.5297 29.1693 64.5797 29.3993C64.7597 30.1093 64.9097 30.8193 65.0197 31.5493C65.0597 31.7593 65.0897 31.9693 65.1197 32.1893C65.1697 32.5093 65.2097 32.8393 65.2397 33.1593C65.2597 33.2993 65.2797 33.4393 65.2897 33.5693C65.3197 33.9193 65.3497 34.2693 65.3597 34.6293C65.3797 34.7793 65.3897 34.9193 65.3897 35.0693C65.4097 35.4893 65.4197 35.9093 65.4197 36.3393Z" fill="#FD983A"/>
<path d="M36.4197 15.0513V27.8393M45.4087 34.3293L57.2327 31.6663M42.0107 44.9563L48.0577 54.2523M30.8137 44.9453L24.7627 54.2523M27.4207 34.3583L15.5837 31.7123" stroke="#FD983A" stroke-width="2" stroke-miterlimit="10" stroke-linecap="round" stroke-linejoin="round"/>
</svg>
