<svg width="47" height="70" viewBox="0 0 47 70" fill="none" xmlns="http://www.w3.org/2000/svg">
<path d="M37.1823 7.17463C37.1823 8.99695 36.4584 10.7446 35.1699 12.0332C33.8813 13.3218 32.1336 14.0457 30.3113 14.0457C28.489 14.0457 26.7413 13.3218 25.4527 12.0332C24.1641 10.7446 23.4402 8.99695 23.4402 7.17463C23.4402 5.35231 24.1641 3.60463 25.4527 2.31606C26.7413 1.02749 28.489 0.303574 30.3113 0.303574C32.1336 0.303574 33.8813 1.02749 35.1699 2.31606C36.4584 3.60463 37.1823 5.35231 37.1823 7.17463ZM37.1823 50.6913C35.9675 50.6913 34.8023 51.174 33.9433 52.033C33.0842 52.8921 32.6016 54.0572 32.6016 55.272C32.6016 56.4869 33.0842 57.652 33.9433 58.5111C34.8023 59.3701 35.9675 59.8528 37.1823 59.8528C38.3972 59.8528 39.5623 59.3701 40.4214 58.5111C41.2804 57.652 41.7631 56.4869 41.7631 55.272C41.7631 54.0572 41.2804 52.8921 40.4214 52.033C39.5623 51.174 38.3972 50.6913 37.1823 50.6913ZM45.6108 28.2001L36.8617 19.4509C36.658 19.1964 36.4002 18.9905 36.1071 18.8478C35.814 18.7052 35.4928 18.6296 35.1668 18.6264H2.82705C2.21961 18.6264 1.63705 18.8677 1.20752 19.2972C0.777999 19.7268 0.536695 20.3093 0.536695 20.9168C0.536695 21.5242 0.777999 22.1068 1.20752 22.5363C1.63705 22.9658 2.21961 23.2071 2.82705 23.2071H15.195L0.536695 52.0656C0.473446 52.3677 0.473446 52.6796 0.536695 52.9817C0.422233 53.5839 0.548603 54.2071 0.888646 54.7171C1.22869 55.2272 1.75526 55.5835 2.35521 55.7095C2.95515 55.8355 3.58058 55.7211 4.09708 55.3909C4.61358 55.0607 4.97993 54.5411 5.1174 53.9436L9.69811 46.1106H18.8595L10.0188 65.5328C9.80275 65.8921 9.69168 66.3047 9.69811 66.7238C9.58993 67.3258 9.72218 67.9463 10.0664 68.4518C10.4107 68.9574 10.9395 69.3078 11.5393 69.4278C12.1391 69.5477 12.762 69.4277 13.2742 69.0934C13.7864 68.7591 14.1471 68.2373 14.2788 67.64L35.8081 24.6729L42.4044 31.4524C42.8451 31.8247 43.4102 32.017 43.9866 31.9907C44.563 31.9644 45.1082 31.7216 45.5133 31.3107C45.9184 30.8998 46.1535 30.3512 46.1715 29.7745C46.1896 29.1978 45.9894 28.6355 45.6108 28.2001Z" fill="#94214C"/>
</svg>
